<svg height="512pt" viewBox="-41 0 512 512" width="512pt" xmlns="http://www.w3.org/2000/svg"><path d="m336.605469 223.867188v-15h-243.132813v15c0 52.851562 33.761719 98.730468 82.464844 115.160156v-2.691406c0-8.285157 6.71875-15 15-15h48.203125c8.28125 0 15 6.714843 15 15v2.691406c48.703125-16.429688 82.464844-62.308594 82.464844-115.160156zm0 0"/><path d="m205.9375 358.054688v26.480468c0 5.019532 4.082031 9.101563 9.101562 9.101563 5.019532 0 9.101563-4.082031 9.101563-9.101563v-26.515625c0-.046875 0-.09375 0-.136719v-6.546874h-18.199219v6.53125c0 .0625-.003906.125-.003906.1875zm0 0"/><path d="m429.417969 415.464844-18.054688-153.460938c-2.851562-24.214844-21.660156-44.6875-44.757812-51.066406v12.929688c0 69.316406-46.59375 129.015624-112.464844 146.472656v14.195312c0 21.558594-17.542969 39.101563-39.101563 39.101563-21.5625 0-39.101562-17.542969-39.101562-39.101563v-14.195312c-65.871094-17.457032-112.464844-77.15625-112.464844-146.472656v-12.929688c-23.097656 6.382812-41.910156 26.851562-44.757812 51.066406l-18.054688 153.460938c-3.003906 25.535156 4.332032 49.710937 20.65625 68.066406 16.328125 18.359375 39.476563 28.46875 65.1875 28.46875h257.066406c25.710938 0 48.863282-10.109375 65.1875-28.46875 16.328126-18.355469 23.664063-42.53125 20.660157-68.066406zm0 0"/><path d="m157.738281 135.5c0-31.59375 25.707031-57.300781 57.300781-57.300781s57.300782 25.707031 57.300782 57.300781v43.367188h78.199218v-43.367188c0-74.714844-60.785156-135.5-135.5-135.5-74.714843 0-135.5 60.785156-135.5 135.5v43.367188h78.199219zm0 0"/></svg>